<svg xmlns="http://www.w3.org/2000/svg" xmlns:xlink="http://www.w3.org/1999/xlink" width="500" zoomAndPan="magnify" viewBox="0 0 375 374.999991" height="500" preserveAspectRatio="xMidYMid meet" version="1.0"><defs><clipPath id="b1296d7ddb"><path d="M 46.820312 124.195312 L 220.183594 124.195312 L 220.183594 298.191406 L 46.820312 298.191406 Z M 46.820312 124.195312 " clip-rule="nonzero"/></clipPath><clipPath id="7c9665fab0"><path d="M 154.699219 77.09375 L 328.066406 77.09375 L 328.066406 250.34375 L 154.699219 250.34375 Z M 154.699219 77.09375 " clip-rule="nonzero"/></clipPath></defs><g clip-path="url(#b1296d7ddb)"><path fill="#d2f6ee" d="M 133.5 298.191406 C 181.375 298.191406 220.183594 259.242188 220.183594 211.191406 C 220.183594 163.144531 181.375 124.195312 133.5 124.195312 C 85.628906 124.195312 46.820312 163.144531 46.820312 211.191406 C 46.820312 259.242188 85.628906 298.191406 133.5 298.191406 Z M 133.5 298.191406 " fill-opacity="0.9" fill-rule="nonzero"/></g><g clip-path="url(#7c9665fab0)"><path fill="#bb2649" d="M 241.382812 250.34375 C 289.253906 250.34375 328.066406 211.558594 328.066406 163.71875 C 328.066406 115.875 289.253906 77.09375 241.382812 77.09375 C 193.507812 77.09375 154.699219 115.875 154.699219 163.71875 C 154.699219 211.558594 193.507812 250.34375 241.382812 250.34375 Z M 241.382812 250.34375 " fill-opacity="0.9" fill-rule="nonzero"/></g></svg>